# xmcd
#
# Track frame offsets: 
#        150
#        19262
#        34623
#        47201
#        59953
#        75476
#        88648
#        104138
#        116618
#
# Disc length: 1821 seconds
#
# Revision: 0
# Processed by: cddbd v1.5.2PL0 Copyright (c) Steve Scherf et al.
# Submitted via: ExactAudioCopy v0.99pb4
#
DISCID=79071b09
DTITLE=Steel Blue Rose - Steel Blue Rose
DYEAR=2007
DGENRE=Country
TTITLE0=Hey Mr. Big Eyes
TTITLE1=Goin' To Nashville
TTITLE2=Traffic
TTITLE3=Get In Line
TTITLE4=Daddy's Little Girl
TTITLE5=Tomboy
TTITLE6=I'd Rather Be Playin' In The Band
TTITLE7=Better Late Than Never
TTITLE8=New Star In The Sky
EXTD=
EXTT0=
EXTT1=
EXTT2=
EXTT3=
EXTT4=
EXTT5=
EXTT6=
EXTT7=
EXTT8=
PLAYORDER=
